<?xml version="1.0" encoding="UTF-8" standalone="no"?>
<!-- Created with Inkscape (http://www.inkscape.org/) -->

<svg
   width="210mm"
   height="297mm"
   viewBox="0 0 210 297"
   version="1.1"
   id="svg6844"
   inkscape:version="1.1.2 (0a00cf5339, 2022-02-04)"
   sodipodi:docname="dibujo.svg"
   xmlns:inkscape="http://www.inkscape.org/namespaces/inkscape"
   xmlns:sodipodi="http://sodipodi.sourceforge.net/DTD/sodipodi-0.dtd"
   xmlns="http://www.w3.org/2000/svg"
   xmlns:svg="http://www.w3.org/2000/svg">
  <sodipodi:namedview
     id="namedview6846"
     pagecolor="#ffffff"
     bordercolor="#000000"
     borderopacity="0.25"
     inkscape:pageshadow="2"
     inkscape:pageopacity="0.0"
     inkscape:pagecheckerboard="0"
     inkscape:document-units="mm"
     showgrid="false"
     inkscape:zoom="0.49260384"
     inkscape:cx="475.02675"
     inkscape:cy="443.5613"
     inkscape:window-width="1866"
     inkscape:window-height="1016"
     inkscape:window-x="0"
     inkscape:window-y="0"
     inkscape:window-maximized="1"
     inkscape:current-layer="layer1" />
  <defs
     id="defs6841" />
  <g
     inkscape:label="Capa 1"
     inkscape:groupmode="layer"
     id="layer1">
    <path
       style="fill:#cccccc;stroke:#000000;stroke-width:0.964999"
       d="M 105.18404,14.65921 C 216.34048,41.098338 80.627892,74.307863 80.627892,74.307863 l 46.259368,0.4777 c 0,0 -139.980401,-88.259183 -21.70322,-60.126353 z"
       id="path6900"
       sodipodi:nodetypes="cccc" />
    <path
       style="fill:#00c400;fill-opacity:1;stroke:#000000;stroke-width:0.964999"
       d="m 38.415711,66.231268 c -47.0347865,-0.80094 -10.331622,49.230982 -10.331622,49.230982 0,0 -53.284049,-57.942241 -52.965138,5.51 0.318911,63.45224 53.315262,13.64 53.315262,13.64 0,0 -59.789813,44.3614 10.935437,42.54598 70.72526,-1.81542 8.404465,-42.59198 8.404465,-42.59198 0,0 51.629363,40.37972 49.471313,-10.83603 -2.15805,-51.215752 -49.503953,-7.9312 -49.503953,-7.9312 -0.0345,0.0298 51.856803,-48.525902 -9.325764,-49.567752 z"
       id="path7509"
       sodipodi:nodetypes="sczczczcs" />
    <path
       style="fill:#d3d2d2;fill-opacity:1;stroke:#000000;stroke-width:0.964999"
       d="m 136.14774,110.24302 c 0,0 5.17323,-23.786176 26.75332,-17.470596 21.58009,6.31558 19.44374,15.102806 19.44374,15.102806 0,0 7.16271,-20.032726 24.61401,-15.696226 17.4513,4.33649 14.3447,16.662036 14.3447,16.662036 0,0 11.68612,-22.845586 26.03378,-10.282666 14.34766,12.562916 -1.19428,21.369436 -1.19428,21.369436 0,0 22.55926,17.08486 -5.98029,22.81293 -28.53499,5.72716 -19.79535,-9.18035 -19.79535,-9.18035 0,0 -0.0588,36.27325 -29.58547,7.33774 -7.18793,-7.044 -7.18793,-7.044 -7.18793,-7.044 0,0 -11.14165,19.73451 -27.06338,12.33594 -15.92174,-7.39861 -16.20214,-9.07505 -16.20214,-9.07505 0,0 -23.02212,-1.93754 -17.92604,-15.46775 5.09608,-13.53022 13.74533,-11.40425 13.74533,-11.40425 z"
       id="path12524"
       sodipodi:nodetypes="cscscscscscscsc" />
    <path
       style="fill:#ffccaa;fill-opacity:1;stroke:#000000;stroke-width:0.964999"
       d="m 62.350237,278.37371 c 0,0 -16.265624,-109.49697 40.363643,-109.1081 41.9125,0.28781 34.8759,30.80941 34.8759,30.80941 l 0.97175,20.76265 c 0,0 47.88382,-3.61942 30.01421,12.0051 -6.39409,5.59075 -30.13438,3.12737 -30.13438,3.12737 l 0.67206,21.09645 -32.14316,-0.0475 c 0,0 -11.628092,7.60979 10.12096,8.35549 20.07723,0.68838 22.32485,-0.36644 22.32485,-0.36644 l 0.31154,13.6133 z"
       id="path20289"
       sodipodi:nodetypes="csccscccsccc" />
    <ellipse
       style="fill:#000000;fill-opacity:1;stroke:#000000;stroke-width:0.528416"
       id="path20954"
       cx="124.80135"
       cy="198.28362"
       rx="5.077002"
       ry="4.8255358" />
    <path
       style="fill:#241c1c;fill-opacity:1;stroke:#000000;stroke-width:0.964999"
       d="m 126.94921,253.91436 c 1.41532,-0.71469 1.21783,-5.01111 2.72866,-5.53188 0.78051,-0.26904 -0.0777,7.46406 0.48328,8.04691 0.22185,0.23053 1.32984,-3.14136 1.92679,-3.51793 0.84411,-0.53249 -0.13414,3.21174 0.80818,2.88296 1.37583,-0.48003 2.54586,-7.02337 3.97821,-8.09624 0.7162,-0.53646 -0.92383,6.75904 -0.49997,4.79714 0.18903,-0.87495 0.30688,-1.491 0.66576,-2.34628 0.0994,-0.23689 0.0208,0.51466 0,0.77072 -0.2037,2.50985 -1.28367,4.99936 -1.28367,7.44978 0,0.9773 -0.23746,-1.9839 0,-2.93192 0.0723,-0.28852 0.28006,1.09216 0.37423,0.81003 1.01889,-3.05234 -3.1984,-6.48844 -5.38389,-7.75724 -1.86237,-1.08121 -3.49744,6.12043 -3.13035,5.8757 0.39748,-0.26499 1.25795,-4.07348 1.33782,-3.50569 0.79093,5.62252 -3.81925,1.9039 -4.19147,2.21275 -1.02836,0.85328 -1.45919,2.23395 -2.6964,2.86108 -0.16126,0.0817 -1.07245,-3.77912 -1.97909,-4.14177 -0.65858,-0.26343 -4.93166,3.25612 -6.51067,3.69632 -3.13025,0.87267 -1.71067,-8.08455 -3.66889,-2.84364 -0.19123,0.5118 0.002,-2.17649 0.0872,-1.63675 1.21357,7.7255 1.83877,-0.58632 3.89661,-1.19614 0.0315,-0.009 -0.28557,3.09022 0,4.52825 0.19144,0.96397 0.19852,-0.48358 2.14785,-3.99638 0.13683,-0.24657 0.85847,5.48893 1.74802,5.03303 1.45623,-0.74634 0.91937,-3.36711 1.90677,-4.4396 0.45205,-0.49102 -0.57448,2.0533 0.3798,2.19495 0.0934,0.0139 0.9837,-3.24964 0.92352,-3.09845 -0.4811,1.20868 -1.52767,5.27812 -0.86863,6.11641 0.15738,0.20019 2.92539,-8.43689 3.34472,-8.01502 0.20022,0.20144 0,1.36699 0,1.68757 0,5.80713 1.90996,-2.39957 0.9124,1.37231 -0.2379,0.89952 -1.47488,3.95056 -0.51703,4.90841 0.0243,0.0243 0.56109,-2.01128 1.23323,-3.93815 0.27347,-0.78401 0.56016,-1.27631 1.05222,-1.90306 0.64889,-0.82649 -0.64239,4.13699 -0.64239,3.08621 0,-1.11115 0.0243,-2.18304 0.12573,-3.28612 0.0175,-0.19021 0.0854,-0.74388 0,-0.57303 -0.41187,0.82374 -0.98517,3.12713 -0.135,3.63476 1.00831,0.60204 1.7155,-2.90652 2.85626,-2.92302 0.81527,-0.0118 -0.31448,2.96836 0.8486,3.17671 0.97863,0.1753 1.85458,-1.72113 2.11484,-1.88451 0.86562,-0.54342 1.86158,-0.91014 2.86923,-1.08116 0.0552,-0.009 -0.29763,1.76442 -0.22624,1.9891 0.12267,0.3861 0.48749,-0.65342 0.7874,-0.92575 0.13396,-0.12163 -0.83615,1.66846 -0.38461,2.38856 0.002,0.002 1.79145,-1.22438 2.87109,-1.78845 0.47988,-0.25072 -0.66714,2.59976 0,3.29243 0.24136,0.25059 1.375,-7.75362 1.01513,-3.5209 -0.42118,4.95391 -0.6351,0.47667 -2.78096,-0.0679 -0.81133,-0.20589 -0.88656,1.42028 -1.31259,2.1408 -1.20618,2.03994 -0.32823,1.40766 -2.03844,-1.90491 -0.52176,-1.01062 -1.06038,-2.02325 -1.74097,-2.93451 -0.59703,-0.79938 -3.05574,4.83372 -3.71339,5.87978 -0.0854,0.13579 0.19759,-3.76013 -1.2666,-3.53165 -0.27822,0.0434 -1.7107,5.51362 -2.30177,2.83919 -0.17887,-0.80932 -0.34067,-1.62243 -0.49515,-2.43677 -0.0717,-0.37793 -0.0365,-0.78379 -0.18322,-1.13939 -0.0406,-0.0984 -0.13436,0.16817 -0.17729,0.26556 -0.83514,1.89508 -0.21477,1.10305 -1.56591,2.78987 -0.69164,0.86348 -0.78344,-4.62819 -1.67459,-2.82362 -0.67963,1.37626 -0.84464,3.29493 -2.65671,3.73157 -0.85638,0.20635 -0.76812,-4.19943 -1.06335,-4.99409 -0.18763,-0.50503 -0.11807,0.65943 -2.00579,3.45896 -1.60017,2.37306 -0.89148,-1.06697 -2.16046,-1.39123 -1.01038,-0.25818 -0.95676,1.85969 -1.54811,2.71866 -0.65442,0.95058 -1.4669,1.78249 -2.17307,2.69528 -0.89904,1.1621 0.47273,-2.90677 0.87271,-4.32054 0.26364,-0.93185 0.86619,-1.6457 1.16609,-2.54656 0.50131,-1.47629 0.26012,1.25046 0.38202,1.26475 0.23842,0.0279 0.0583,-2.33803 0.002,-2.37706 -0.22666,-0.15771 -2.99799,6.70158 -3.07508,5.56267 -0.0519,-0.76723 -0.0538,-1.53986 0,-2.30696 0.6552,-9.33857 0.87305,0.69237 2.19049,1.37787 0.73102,0.38036 6.37706,-6.25265 4.9774,-1.4157 -0.30442,1.05204 -0.50601,2.41967 -0.86566,3.49864 -0.009,0.0269 1.43916,-4.48983 1.88006,-4.38879 0.59094,0.13542 -1.57794,4.15253 1.63712,2.41415 0.74985,-0.40544 1.4389,-0.91503 2.14266,-1.39605 0.53369,-0.36477 1.02902,-0.78435 1.56851,-1.14049 3.65958,-2.4159 1.06848,1.23048 2.31104,1.47393 0.21009,0.0412 0.25299,-0.34706 0.40131,-0.50145 0.63847,-0.66459 1.24308,-1.37013 1.95683,-1.95313 1.33352,-1.08923 0.80643,2.60282 0.8601,3.13665 0.24213,2.40801 0.59729,-3.51807 2.4594,-2.77762 1.2069,0.47991 -0.005,2.91453 0.79965,3.44301 0.006,0.004 1.97894,-2.03495 3.39665,-2.462 0.14726,-0.0444 -0.098,3.18794 0.28484,2.89483 0.26213,-0.20069 0.34356,-1.76243 1.13865,-1.77621 0.68105,-0.0118 -0.59582,2.42201 -0.0297,2.04325 0.43127,-0.28853 3.82326,-6.52375 3.39553,-3.72748 -0.12851,0.84013 -0.30862,1.67196 -0.4944,2.50131"
       id="path21261" />
  </g>
</svg>
